<svg xmlns="http://www.w3.org/2000/svg" width="400" height="400" viewBox="0 0 400 400"><path fill="#4D4D4D" d="M202.4 74.1l-.3-.3-.3.3z"/><path d="M302.4 273.6l-.3.3.3.3zM202.4 74.1zM102.3 174.1z"/><path fill="#4D4D4D" d="M102 173.9l.3.2v-.5zM302.4 274.2l-.3-.3-.3.3z"/><path fill="#FFAD1F" d="M200.1 200.1L100 100v100.1l50.1 50 49.7 49.7.3-.3v-99.4z"/><path fill="#FFB940" d="M0 200.1l100 100h99.5l.3-.3-49.7-49.7-50.1-50z"/><path fill="#FFC35C" d="M99.5 100H0v100.1h100V100z"/><path fill="#17BF63" d="M300.1 100L200.1 0v100l50 50.1 49.7 49.7.3-.3V100z"/><path fill="#3AC97A" d="M100 100l100.1 100.1h99.4l.3-.3-49.7-49.7-50-50.1z"/><path fill="#57D18E" d="M199.5 0H100v100h100.1V0z"/><g><path fill="#FF6810" d="M300 300L199.9 199.9V300l50 50 49.8 49.7.3-.3V300z"/><path fill="#FF7F34" d="M99.9 300l100 100h99.5l.3-.3-49.8-49.7-50-50z"/><path fill="#FF9252" d="M199.4 199.9H99.9V300h100V199.9z"/></g><g><path fill="#E0245E" d="M400 199.9l-100-100v100l50 50 49.7 49.8.3-.3v-99.5z"/><path fill="#E54576" d="M199.9 199.9L300 300h99.4l.3-.3-49.7-49.8-50-50z"/><path fill="#E9618A" d="M299.4 99.9h-99.5v100H300v-100z"/></g></svg>
